<svg xmlns="http://www.w3.org/2000/svg" width="200" height="200" viewBox="0 0 200 200"><path d="M100 5.4l82.5 47.7v95.3L100 196l-82.5-47.6V53.1L100 5.4z"/><path fill="#fff" d="M52.1 135.9a1.6 1.6 0 1 1 0-3.1h7.8v-9.9h-7.8a1.5 1.5 0 0 1-1.6-1.5V90.5a1.5 1.5 0 0 1 1.6-1.5h10.3c.8-22.3 17.4-34.5 37.6-34.5s36.8 12.2 37.6 34.5h10.3a1.5 1.5 0 0 1 1.6 1.5v30.9a1.5 1.5 0 0 1-1.6 1.5h-7.8v9.9h7.8a1.6 1.6 0 1 1 0 3.1zm1.6-43.8v27.7h92.6V92.1zm9.4 30.8v9.9h10v-9.9zM65.6 89h68.8c-.8-20.2-16.1-31.3-34.4-31.3S66.3 68.8 65.6 89zm10.6 33.9v9.9h15.7v-9.9zm18.8 0v9.9h10v-9.9zm42.4-10.6H99.2a1.7 1.7 0 0 1-1.6-1.6 1.6 1.6 0 0 1 1.6-1.5h38.2a1.6 1.6 0 0 1 1.6 1.5 1.7 1.7 0 0 1-1.6 1.6zm-29.3 10.6v9.9h15.7v-9.9zm18.8 0v9.9h10v-9.9z"/></svg>