<svg xmlns="http://www.w3.org/2000/svg" width="200" height="200" viewBox="0 0 200 200"><path d="M98.5 5.2L181 52.8V148l-82.5 47.6L16.1 148V52.8L98.5 5.2z"/><path fill="#fff" d="M51.9 139l-3.6-5.2a1.5 1.5 0 0 1 .2-1.8l13-15.4h-6.4a1.4 1.4 0 0 1-1.6-1.5v-11.3a1.4 1.4 0 0 1 1.6-1.5h9a43.9 43.9 0 0 1-1.7-11.9 37 37 0 0 1 74 0 40.3 40.3 0 0 1-1.7 11.9h9a1.4 1.4 0 0 1 1.6 1.5v11.3a1.4 1.4 0 0 1-1.6 1.5h-7.9l12.8 15.4a1.7 1.7 0 0 1 0 1.8L145 139a1.7 1.7 0 0 1-2 .5l-7.6-3.9H61.5l-7.5 3.9a1.9 1.9 0 0 1-2.1-.5zm23.8-22.4H65.4l-13.8 16.3 2.2 3.1 26.4-13.9zm-19.1-11.2v8.1h85.6v-8.1zm10.8-3.1h64a40 40 0 0 0 1.9-11.9 33.9 33.9 0 0 0-67.8 0 31.6 31.6 0 0 0 1.9 11.9zm15 22.3l-14.8 7.8h21.2zm-2.6-8l13.1 15.8h11.3l13.1-15.8zm34.8 8l-6.4 7.8h21.3zm17.1-8h-10.3l-4.7 5.5 26.6 13.9 2.2-2.9z"/></svg>
