<svg xmlns="http://www.w3.org/2000/svg" width="200" height="200" viewBox="0 0 200 200"><path d="M100 5.4l82.5 47.7v95.3L100 196l-82.5-47.6V53.1L100 5.4z"/><path fill="#fff" d="M54.8 135.9a1.5 1.5 0 0 1-1.6-1.6v-18.9H32.5a1.6 1.6 0 0 1 0-3.1h11.8v-10.2a1.5 1.5 0 0 1 1.5-1.6h6.1a49.8 49.8 0 0 1 47.9-38 .8.8 0 0 1 .7 0 49.4 49.4 0 0 1 47.5 38h6.2a1.5 1.5 0 0 1 1.5 1.6v10.2h11.8a1.6 1.6 0 0 1 0 3.1h-20.7v18.9a1.5 1.5 0 0 1-1.6 1.6zm-7.4-32.2v8.6h105.2v-8.6zm49.5-37.9C76.8 67 60.1 81.6 55.2 100.5H72zm-40.6 49.6v17.4h42.1v-17.4zm42.1-46.5l-22.5 31.6h22.5zm3.2-3.3v34.9h43.2a46.6 46.6 0 0 0-43.2-34.9zm0 49.8v17.4h7v-17.4zm10.1 0v17.4h32v-17.4z"/></svg>